<?xml version="1.0" standalone="no"?>
<!DOCTYPE svg PUBLIC "-//W3C//DTD SVG 20010904//EN"
 "http://www.w3.org/TR/2001/REC-SVG-20010904/DTD/svg10.dtd">
<svg version="1.0" xmlns="http://www.w3.org/2000/svg"
 width="220.000000pt" height="220.000000pt" viewBox="0 0 220.000000 220.000000"
 preserveAspectRatio="xMidYMid meet">
<metadata>
Created by potrace 1.11, written by Peter Selinger 2001-2013
</metadata>
<g transform="translate(0.000000,220.000000) scale(0.100000,-0.100000)"
fill="#000000" stroke="none">
<path d="M885 1969 c-55 -6 -82 -15 -105 -35 -8 -7 -21 -14 -29 -16 -8 -2 -41
-18 -74 -35 -32 -18 -62 -33 -66 -33 -3 0 -29 -12 -56 -26 -51 -27 -65 -40
-146 -135 -102 -119 -95 -104 -95 -210 1 -91 3 -98 26 -118 20 -16 22 -20 8
-21 -27 0 -35 -28 -34 -125 2 -94 9 -120 32 -111 18 7 30 -14 13 -24 -7 -5
-16 -7 -21 -4 -15 10 -25 -35 -24 -118 1 -68 5 -92 19 -108 10 -12 23 -18 29
-14 7 4 8 3 4 -4 -4 -7 -13 -12 -21 -12 -8 0 -17 -6 -22 -12 -11 -20 -11 -199
1 -212 6 -6 31 -36 56 -66 24 -30 59 -71 77 -90 18 -19 33 -37 33 -41 0 -3 35
-24 78 -45 42 -22 78 -42 80 -46 2 -5 9 -8 16 -8 7 0 53 -20 101 -44 l89 -45
245 1 246 0 170 83 c170 83 200 104 265 185 36 45 39 48 79 93 23 25 25 37 26
125 2 93 1 98 -24 119 -20 18 -22 23 -9 23 27 0 32 18 34 118 1 96 -8 122 -42
122 -8 0 -14 5 -14 10 0 6 6 10 13 10 35 1 42 18 43 116 1 92 0 99 -24 121
-23 21 -19 29 11 24 9 -1 9 -3 11 113 l2 99 -40 51 c-22 28 -49 61 -61 72 -11
12 -35 39 -52 61 -26 32 -64 56 -178 112 -80 39 -148 72 -152 73 -5 1 -14 8
-21 15 -7 7 -32 13 -55 13 -23 1 -121 2 -217 3 -96 1 -197 -1 -225 -4z"/>
</g>
</svg>
